<svg width="116" height="116" viewBox="0 0 116 116" fill="none" xmlns="http://www.w3.org/2000/svg">
<path fill-rule="evenodd" clip-rule="evenodd" d="M59.2462 115.669C47.8622 115.669 42.5719 114 33.3763 107.323C27.5596 114.834 9.14045 120.704 8.33712 110.662C8.33712 103.123 6.67522 96.7526 4.79173 89.7979C2.54825 81.2297 0 71.688 0 57.8624C0 24.8418 26.978 0 58.9416 0C90.9328 0 116 26.0659 116 58.1683C116.107 89.7743 90.7153 115.5 59.2462 115.669ZM59.7171 28.5416C44.1508 27.735 32.019 38.5564 29.3323 55.5256C27.1164 69.574 31.0496 86.6822 34.401 87.5724C36.0075 87.9619 40.0515 84.6793 42.5719 82.1478C46.7398 85.0396 51.5932 86.7763 56.6427 87.1829C72.7719 87.9622 86.5538 75.6296 87.6367 59.4481C88.2672 43.2322 75.8486 29.4975 59.7171 28.5695V28.5416Z" fill="url(#paint0_linear_196_2)"/>
<defs>
<linearGradient id="paint0_linear_196_2" x1="99.5" y1="22.5" x2="7" y2="107" gradientUnits="userSpaceOnUse">
<stop stop-color="#9933DD"/>
<stop offset="0.5" stop-color="#2F2FB9"/>
<stop offset="1" stop-color="#44CCFF"/>
</linearGradient>
</defs>
</svg>
